<?xml version="1.0" encoding="UTF-8"?>
<svg width="1200" height="1500" xmlns="http://www.w3.org/2000/svg">
  
    <defs>
      <linearGradient id="grad1" x1="0%" y1="0%" x2="0%" y2="100%">
        <stop offset="0%" style="stop-color:#003366;stop-opacity:1" />
        <stop offset="100%" style="stop-color:#C0C0C0;stop-opacity:1" />
      </linearGradient>
    </defs>
  
  
  <!-- Background -->
  <rect width="1200" height="1500" fill="url(#grad1)"/>
  
  <!-- Geometric pattern -->
  <g opacity="0.2">
    <line x1="0" y1="0" x2="0" y2="1500" stroke="white" stroke-width="1" opacity="0.1"/><line x1="40" y1="0" x2="40" y2="1500" stroke="white" stroke-width="1" opacity="0.1"/><line x1="80" y1="0" x2="80" y2="1500" stroke="white" stroke-width="1" opacity="0.1"/><line x1="120" y1="0" x2="120" y2="1500" stroke="white" stroke-width="1" opacity="0.1"/><line x1="160" y1="0" x2="160" y2="1500" stroke="white" stroke-width="1" opacity="0.1"/><line x1="200" y1="0" x2="200" y2="1500" stroke="white" stroke-width="1" opacity="0.1"/><line x1="240" y1="0" x2="240" y2="1500" stroke="white" stroke-width="1" opacity="0.1"/><line x1="280" y1="0" x2="280" y2="1500" stroke="white" stroke-width="1" opacity="0.1"/><line x1="320" y1="0" x2="320" y2="1500" stroke="white" stroke-width="1" opacity="0.1"/><line x1="360" y1="0" x2="360" y2="1500" stroke="white" stroke-width="1" opacity="0.1"/><line x1="400" y1="0" x2="400" y2="1500" stroke="white" stroke-width="1" opacity="0.1"/><line x1="440" y1="0" x2="440" y2="1500" stroke="white" stroke-width="1" opacity="0.1"/><line x1="480" y1="0" x2="480" y2="1500" stroke="white" stroke-width="1" opacity="0.1"/><line x1="520" y1="0" x2="520" y2="1500" stroke="white" stroke-width="1" opacity="0.1"/><line x1="560" y1="0" x2="560" y2="1500" stroke="white" stroke-width="1" opacity="0.1"/><line x1="600" y1="0" x2="600" y2="1500" stroke="white" stroke-width="1" opacity="0.1"/><line x1="640" y1="0" x2="640" y2="1500" stroke="white" stroke-width="1" opacity="0.1"/><line x1="680" y1="0" x2="680" y2="1500" stroke="white" stroke-width="1" opacity="0.1"/><line x1="720" y1="0" x2="720" y2="1500" stroke="white" stroke-width="1" opacity="0.1"/><line x1="760" y1="0" x2="760" y2="1500" stroke="white" stroke-width="1" opacity="0.1"/><line x1="800" y1="0" x2="800" y2="1500" stroke="white" stroke-width="1" opacity="0.1"/><line x1="840" y1="0" x2="840" y2="1500" stroke="white" stroke-width="1" opacity="0.1"/><line x1="880" y1="0" x2="880" y2="1500" stroke="white" stroke-width="1" opacity="0.1"/><line x1="920" y1="0" x2="920" y2="1500" stroke="white" stroke-width="1" opacity="0.1"/><line x1="960" y1="0" x2="960" y2="1500" stroke="white" stroke-width="1" opacity="0.1"/><line x1="1000" y1="0" x2="1000" y2="1500" stroke="white" stroke-width="1" opacity="0.1"/><line x1="1040" y1="0" x2="1040" y2="1500" stroke="white" stroke-width="1" opacity="0.1"/><line x1="1080" y1="0" x2="1080" y2="1500" stroke="white" stroke-width="1" opacity="0.1"/><line x1="1120" y1="0" x2="1120" y2="1500" stroke="white" stroke-width="1" opacity="0.1"/><line x1="1160" y1="0" x2="1160" y2="1500" stroke="white" stroke-width="1" opacity="0.1"/><line x1="0" y1="0" x2="1200" y2="0" stroke="white" stroke-width="1" opacity="0.1"/><line x1="0" y1="40" x2="1200" y2="40" stroke="white" stroke-width="1" opacity="0.1"/><line x1="0" y1="80" x2="1200" y2="80" stroke="white" stroke-width="1" opacity="0.1"/><line x1="0" y1="120" x2="1200" y2="120" stroke="white" stroke-width="1" opacity="0.1"/><line x1="0" y1="160" x2="1200" y2="160" stroke="white" stroke-width="1" opacity="0.1"/><line x1="0" y1="200" x2="1200" y2="200" stroke="white" stroke-width="1" opacity="0.1"/><line x1="0" y1="240" x2="1200" y2="240" stroke="white" stroke-width="1" opacity="0.1"/><line x1="0" y1="280" x2="1200" y2="280" stroke="white" stroke-width="1" opacity="0.1"/><line x1="0" y1="320" x2="1200" y2="320" stroke="white" stroke-width="1" opacity="0.1"/><line x1="0" y1="360" x2="1200" y2="360" stroke="white" stroke-width="1" opacity="0.1"/><line x1="0" y1="400" x2="1200" y2="400" stroke="white" stroke-width="1" opacity="0.1"/><line x1="0" y1="440" x2="1200" y2="440" stroke="white" stroke-width="1" opacity="0.1"/><line x1="0" y1="480" x2="1200" y2="480" stroke="white" stroke-width="1" opacity="0.1"/><line x1="0" y1="520" x2="1200" y2="520" stroke="white" stroke-width="1" opacity="0.1"/><line x1="0" y1="560" x2="1200" y2="560" stroke="white" stroke-width="1" opacity="0.1"/><line x1="0" y1="600" x2="1200" y2="600" stroke="white" stroke-width="1" opacity="0.1"/><line x1="0" y1="640" x2="1200" y2="640" stroke="white" stroke-width="1" opacity="0.1"/><line x1="0" y1="680" x2="1200" y2="680" stroke="white" stroke-width="1" opacity="0.1"/><line x1="0" y1="720" x2="1200" y2="720" stroke="white" stroke-width="1" opacity="0.1"/><line x1="0" y1="760" x2="1200" y2="760" stroke="white" stroke-width="1" opacity="0.1"/><line x1="0" y1="800" x2="1200" y2="800" stroke="white" stroke-width="1" opacity="0.1"/><line x1="0" y1="840" x2="1200" y2="840" stroke="white" stroke-width="1" opacity="0.1"/><line x1="0" y1="880" x2="1200" y2="880" stroke="white" stroke-width="1" opacity="0.1"/><line x1="0" y1="920" x2="1200" y2="920" stroke="white" stroke-width="1" opacity="0.1"/><line x1="0" y1="960" x2="1200" y2="960" stroke="white" stroke-width="1" opacity="0.1"/><line x1="0" y1="1000" x2="1200" y2="1000" stroke="white" stroke-width="1" opacity="0.1"/><line x1="0" y1="1040" x2="1200" y2="1040" stroke="white" stroke-width="1" opacity="0.1"/><line x1="0" y1="1080" x2="1200" y2="1080" stroke="white" stroke-width="1" opacity="0.1"/><line x1="0" y1="1120" x2="1200" y2="1120" stroke="white" stroke-width="1" opacity="0.1"/><line x1="0" y1="1160" x2="1200" y2="1160" stroke="white" stroke-width="1" opacity="0.1"/><line x1="0" y1="1200" x2="1200" y2="1200" stroke="white" stroke-width="1" opacity="0.1"/><line x1="0" y1="1240" x2="1200" y2="1240" stroke="white" stroke-width="1" opacity="0.1"/><line x1="0" y1="1280" x2="1200" y2="1280" stroke="white" stroke-width="1" opacity="0.1"/><line x1="0" y1="1320" x2="1200" y2="1320" stroke="white" stroke-width="1" opacity="0.1"/><line x1="0" y1="1360" x2="1200" y2="1360" stroke="white" stroke-width="1" opacity="0.1"/><line x1="0" y1="1400" x2="1200" y2="1400" stroke="white" stroke-width="1" opacity="0.1"/><line x1="0" y1="1440" x2="1200" y2="1440" stroke="white" stroke-width="1" opacity="0.1"/><line x1="0" y1="1480" x2="1200" y2="1480" stroke="white" stroke-width="1" opacity="0.1"/>
  </g>
  
  <!-- Dark overlay -->
  <rect width="1200" height="1500" fill="black" opacity="0.3"/>
  
  <!-- Title -->
  <text x="600" y="690" 
        font-family="serif" font-size="64" font-weight="bold" 
        text-anchor="middle" fill="white" letter-spacing="3">
    office
  </text>
  
  <!-- Subtitle -->
  <text x="600" y="790" 
        font-family="sans-serif" font-size="28" 
        text-anchor="middle" fill="#E0E0E0">
    Premium Collection
  </text>
  
  <!-- Decorative elements -->
  <circle cx="600" cy="1350" r="60" fill="white" opacity="0.1"/>
  <circle cx="100" cy="100" r="40" fill="white" opacity="0.1"/>
  <circle cx="1100" cy="1400" r="50" fill="white" opacity="0.1"/>
</svg>