<?xml version="1.0" encoding="UTF-8"?>
<svg width="1200" height="1500" xmlns="http://www.w3.org/2000/svg">
  
    <defs>
      <linearGradient id="grad1" x1="0%" y1="0%" x2="0%" y2="100%">
        <stop offset="0%" style="stop-color:#FFFFFF;stop-opacity:1" />
        <stop offset="100%" style="stop-color:#808080;stop-opacity:1" />
      </linearGradient>
    </defs>
  
  
  <!-- Background -->
  <rect width="1200" height="1500" fill="url(#grad1)"/>
  
  <!-- Pattern overlay -->
  <g opacity="0.3">
    <circle cx="0" cy="0" r="8" fill="white" opacity="0.08"/><circle cx="0" cy="50" r="8" fill="white" opacity="0.08"/><circle cx="0" cy="100" r="8" fill="white" opacity="0.08"/><circle cx="0" cy="150" r="8" fill="white" opacity="0.08"/><circle cx="0" cy="200" r="8" fill="white" opacity="0.08"/><circle cx="0" cy="250" r="8" fill="white" opacity="0.08"/><circle cx="0" cy="300" r="8" fill="white" opacity="0.08"/><circle cx="0" cy="350" r="8" fill="white" opacity="0.08"/><circle cx="0" cy="400" r="8" fill="white" opacity="0.08"/><circle cx="0" cy="450" r="8" fill="white" opacity="0.08"/><circle cx="0" cy="500" r="8" fill="white" opacity="0.08"/><circle cx="0" cy="550" r="8" fill="white" opacity="0.08"/><circle cx="0" cy="600" r="8" fill="white" opacity="0.08"/><circle cx="0" cy="650" r="8" fill="white" opacity="0.08"/><circle cx="0" cy="700" r="8" fill="white" opacity="0.08"/><circle cx="0" cy="750" r="8" fill="white" opacity="0.08"/><circle cx="0" cy="800" r="8" fill="white" opacity="0.08"/><circle cx="0" cy="850" r="8" fill="white" opacity="0.08"/><circle cx="0" cy="900" r="8" fill="white" opacity="0.08"/><circle cx="0" cy="950" r="8" fill="white" opacity="0.08"/><circle cx="0" cy="1000" r="8" fill="white" opacity="0.08"/><circle cx="0" cy="1050" r="8" fill="white" opacity="0.08"/><circle cx="0" cy="1100" r="8" fill="white" opacity="0.08"/><circle cx="0" cy="1150" r="8" fill="white" opacity="0.08"/><circle cx="0" cy="1200" r="8" fill="white" opacity="0.08"/><circle cx="0" cy="1250" r="8" fill="white" opacity="0.08"/><circle cx="0" cy="1300" r="8" fill="white" opacity="0.08"/><circle cx="0" cy="1350" r="8" fill="white" opacity="0.08"/><circle cx="0" cy="1400" r="8" fill="white" opacity="0.08"/><circle cx="0" cy="1450" r="8" fill="white" opacity="0.08"/><circle cx="50" cy="0" r="8" fill="white" opacity="0.08"/><circle cx="50" cy="50" r="8" fill="white" opacity="0.08"/><circle cx="50" cy="100" r="8" fill="white" opacity="0.08"/><circle cx="50" cy="150" r="8" fill="white" opacity="0.08"/><circle cx="50" cy="200" r="8" fill="white" opacity="0.08"/><circle cx="50" cy="250" r="8" fill="white" opacity="0.08"/><circle cx="50" cy="300" r="8" fill="white" opacity="0.08"/><circle cx="50" cy="350" r="8" fill="white" opacity="0.08"/><circle cx="50" cy="400" r="8" fill="white" opacity="0.08"/><circle cx="50" cy="450" r="8" fill="white" opacity="0.08"/><circle cx="50" cy="500" r="8" fill="white" opacity="0.08"/><circle cx="50" cy="550" r="8" fill="white" opacity="0.08"/><circle cx="50" cy="600" r="8" fill="white" opacity="0.08"/><circle cx="50" cy="650" r="8" fill="white" opacity="0.08"/><circle cx="50" cy="700" r="8" fill="white" opacity="0.08"/><circle cx="50" cy="750" r="8" fill="white" opacity="0.08"/><circle cx="50" cy="800" r="8" fill="white" opacity="0.08"/><circle cx="50" cy="850" r="8" fill="white" opacity="0.08"/><circle cx="50" cy="900" r="8" fill="white" opacity="0.08"/><circle cx="50" cy="950" r="8" fill="white" opacity="0.08"/><circle cx="50" cy="1000" r="8" fill="white" opacity="0.08"/><circle cx="50" cy="1050" r="8" fill="white" opacity="0.08"/><circle cx="50" cy="1100" r="8" fill="white" opacity="0.08"/><circle cx="50" cy="1150" r="8" fill="white" opacity="0.08"/><circle cx="50" cy="1200" r="8" fill="white" opacity="0.08"/><circle cx="50" cy="1250" r="8" fill="white" opacity="0.08"/><circle cx="50" cy="1300" r="8" fill="white" opacity="0.08"/><circle cx="50" cy="1350" r="8" fill="white" opacity="0.08"/><circle cx="50" cy="1400" r="8" fill="white" opacity="0.08"/><circle cx="50" cy="1450" r="8" fill="white" opacity="0.08"/><circle cx="100" cy="0" r="8" fill="white" opacity="0.08"/><circle cx="100" cy="50" r="8" fill="white" opacity="0.08"/><circle cx="100" cy="100" r="8" fill="white" opacity="0.08"/><circle cx="100" cy="150" r="8" fill="white" opacity="0.08"/><circle cx="100" cy="200" r="8" fill="white" opacity="0.08"/><circle cx="100" cy="250" r="8" fill="white" opacity="0.08"/><circle cx="100" cy="300" r="8" fill="white" opacity="0.08"/><circle cx="100" cy="350" r="8" fill="white" opacity="0.08"/><circle cx="100" cy="400" r="8" fill="white" opacity="0.08"/><circle cx="100" cy="450" r="8" fill="white" opacity="0.08"/><circle cx="100" cy="500" r="8" fill="white" opacity="0.08"/><circle cx="100" cy="550" r="8" fill="white" opacity="0.08"/><circle cx="100" cy="600" r="8" fill="white" opacity="0.08"/><circle cx="100" cy="650" r="8" fill="white" opacity="0.08"/><circle cx="100" cy="700" r="8" fill="white" opacity="0.08"/><circle cx="100" cy="750" r="8" fill="white" opacity="0.08"/><circle cx="100" cy="800" r="8" fill="white" opacity="0.08"/><circle cx="100" cy="850" r="8" fill="white" opacity="0.08"/><circle cx="100" cy="900" r="8" fill="white" opacity="0.08"/><circle cx="100" cy="950" r="8" fill="white" opacity="0.08"/><circle cx="100" cy="1000" r="8" fill="white" opacity="0.08"/><circle cx="100" cy="1050" r="8" fill="white" opacity="0.08"/><circle cx="100" cy="1100" r="8" fill="white" opacity="0.08"/><circle cx="100" cy="1150" r="8" fill="white" opacity="0.08"/><circle cx="100" cy="1200" r="8" fill="white" opacity="0.08"/><circle cx="100" cy="1250" r="8" fill="white" opacity="0.08"/><circle cx="100" cy="1300" r="8" fill="white" opacity="0.08"/><circle cx="100" cy="1350" r="8" fill="white" opacity="0.08"/><circle cx="100" cy="1400" r="8" fill="white" opacity="0.08"/><circle cx="100" cy="1450" r="8" fill="white" opacity="0.08"/><circle cx="150" cy="0" r="8" fill="white" opacity="0.08"/><circle cx="150" cy="50" r="8" fill="white" opacity="0.08"/><circle cx="150" cy="100" r="8" fill="white" opacity="0.08"/><circle cx="150" cy="150" r="8" fill="white" opacity="0.08"/><circle cx="150" cy="200" r="8" fill="white" opacity="0.08"/><circle cx="150" cy="250" r="8" fill="white" opacity="0.08"/><circle cx="150" cy="300" r="8" fill="white" opacity="0.08"/><circle cx="150" cy="350" r="8" fill="white" opacity="0.08"/><circle cx="150" cy="400" r="8" fill="white" opacity="0.08"/><circle cx="150" cy="450" r="8" fill="white" opacity="0.08"/><circle cx="150" cy="500" r="8" fill="white" opacity="0.08"/><circle cx="150" cy="550" r="8" fill="white" opacity="0.08"/><circle cx="150" cy="600" r="8" fill="white" opacity="0.08"/><circle cx="150" cy="650" r="8" fill="white" opacity="0.08"/><circle cx="150" cy="700" r="8" fill="white" opacity="0.08"/><circle cx="150" cy="750" r="8" fill="white" opacity="0.08"/><circle cx="150" cy="800" r="8" fill="white" opacity="0.08"/><circle cx="150" cy="850" r="8" fill="white" opacity="0.08"/><circle cx="150" cy="900" r="8" fill="white" opacity="0.08"/><circle cx="150" cy="950" r="8" fill="white" opacity="0.08"/><circle cx="150" cy="1000" r="8" fill="white" opacity="0.08"/><circle cx="150" cy="1050" r="8" fill="white" opacity="0.08"/><circle cx="150" cy="1100" r="8" fill="white" opacity="0.08"/><circle cx="150" cy="1150" r="8" fill="white" opacity="0.08"/><circle cx="150" cy="1200" r="8" fill="white" opacity="0.08"/><circle cx="150" cy="1250" r="8" fill="white" opacity="0.08"/><circle cx="150" cy="1300" r="8" fill="white" opacity="0.08"/><circle cx="150" cy="1350" r="8" fill="white" opacity="0.08"/><circle cx="150" cy="1400" r="8" fill="white" opacity="0.08"/><circle cx="150" cy="1450" r="8" fill="white" opacity="0.08"/><circle cx="200" cy="0" r="8" fill="white" opacity="0.08"/><circle cx="200" cy="50" r="8" fill="white" opacity="0.08"/><circle cx="200" cy="100" r="8" fill="white" opacity="0.08"/><circle cx="200" cy="150" r="8" fill="white" opacity="0.08"/><circle cx="200" cy="200" r="8" fill="white" opacity="0.08"/><circle cx="200" cy="250" r="8" fill="white" opacity="0.08"/><circle cx="200" cy="300" r="8" fill="white" opacity="0.08"/><circle cx="200" cy="350" r="8" fill="white" opacity="0.08"/><circle cx="200" cy="400" r="8" fill="white" opacity="0.08"/><circle cx="200" cy="450" r="8" fill="white" opacity="0.08"/><circle cx="200" cy="500" r="8" fill="white" opacity="0.08"/><circle cx="200" cy="550" r="8" fill="white" opacity="0.08"/><circle cx="200" cy="600" r="8" fill="white" opacity="0.08"/><circle cx="200" cy="650" r="8" fill="white" opacity="0.08"/><circle cx="200" cy="700" r="8" fill="white" opacity="0.08"/><circle cx="200" cy="750" r="8" fill="white" opacity="0.08"/><circle cx="200" cy="800" r="8" fill="white" opacity="0.08"/><circle cx="200" cy="850" r="8" fill="white" opacity="0.08"/><circle cx="200" cy="900" r="8" fill="white" opacity="0.08"/><circle cx="200" cy="950" r="8" fill="white" opacity="0.08"/><circle cx="200" cy="1000" r="8" fill="white" opacity="0.08"/><circle cx="200" cy="1050" r="8" fill="white" opacity="0.08"/><circle cx="200" cy="1100" r="8" fill="white" opacity="0.08"/><circle cx="200" cy="1150" r="8" fill="white" opacity="0.08"/><circle cx="200" cy="1200" r="8" fill="white" opacity="0.08"/><circle cx="200" cy="1250" r="8" fill="white" opacity="0.08"/><circle cx="200" cy="1300" r="8" fill="white" opacity="0.08"/><circle cx="200" cy="1350" r="8" fill="white" opacity="0.08"/><circle cx="200" cy="1400" r="8" fill="white" opacity="0.08"/><circle cx="200" cy="1450" r="8" fill="white" opacity="0.08"/><circle cx="250" cy="0" r="8" fill="white" opacity="0.08"/><circle cx="250" cy="50" r="8" fill="white" opacity="0.08"/><circle cx="250" cy="100" r="8" fill="white" opacity="0.08"/><circle cx="250" cy="150" r="8" fill="white" opacity="0.08"/><circle cx="250" cy="200" r="8" fill="white" opacity="0.08"/><circle cx="250" cy="250" r="8" fill="white" opacity="0.08"/><circle cx="250" cy="300" r="8" fill="white" opacity="0.08"/><circle cx="250" cy="350" r="8" fill="white" opacity="0.08"/><circle cx="250" cy="400" r="8" fill="white" opacity="0.08"/><circle cx="250" cy="450" r="8" fill="white" opacity="0.08"/><circle cx="250" cy="500" r="8" fill="white" opacity="0.08"/><circle cx="250" cy="550" r="8" fill="white" opacity="0.08"/><circle cx="250" cy="600" r="8" fill="white" opacity="0.08"/><circle cx="250" cy="650" r="8" fill="white" opacity="0.08"/><circle cx="250" cy="700" r="8" fill="white" opacity="0.08"/><circle cx="250" cy="750" r="8" fill="white" opacity="0.08"/><circle cx="250" cy="800" r="8" fill="white" opacity="0.08"/><circle cx="250" cy="850" r="8" fill="white" opacity="0.08"/><circle cx="250" cy="900" r="8" fill="white" opacity="0.08"/><circle cx="250" cy="950" r="8" fill="white" opacity="0.08"/><circle cx="250" cy="1000" r="8" fill="white" opacity="0.08"/><circle cx="250" cy="1050" r="8" fill="white" opacity="0.08"/><circle cx="250" cy="1100" r="8" fill="white" opacity="0.08"/><circle cx="250" cy="1150" r="8" fill="white" opacity="0.08"/><circle cx="250" cy="1200" r="8" fill="white" opacity="0.08"/><circle cx="250" cy="1250" r="8" fill="white" opacity="0.08"/><circle cx="250" cy="1300" r="8" fill="white" opacity="0.08"/><circle cx="250" cy="1350" r="8" fill="white" opacity="0.08"/><circle cx="250" cy="1400" r="8" fill="white" opacity="0.08"/><circle cx="250" cy="1450" r="8" fill="white" opacity="0.08"/><circle cx="300" cy="0" r="8" fill="white" opacity="0.08"/><circle cx="300" cy="50" r="8" fill="white" opacity="0.08"/><circle cx="300" cy="100" r="8" fill="white" opacity="0.08"/><circle cx="300" cy="150" r="8" fill="white" opacity="0.08"/><circle cx="300" cy="200" r="8" fill="white" opacity="0.08"/><circle cx="300" cy="250" r="8" fill="white" opacity="0.08"/><circle cx="300" cy="300" r="8" fill="white" opacity="0.08"/><circle cx="300" cy="350" r="8" fill="white" opacity="0.08"/><circle cx="300" cy="400" r="8" fill="white" opacity="0.08"/><circle cx="300" cy="450" r="8" fill="white" opacity="0.08"/><circle cx="300" cy="500" r="8" fill="white" opacity="0.08"/><circle cx="300" cy="550" r="8" fill="white" opacity="0.08"/><circle cx="300" cy="600" r="8" fill="white" opacity="0.08"/><circle cx="300" cy="650" r="8" fill="white" opacity="0.08"/><circle cx="300" cy="700" r="8" fill="white" opacity="0.08"/><circle cx="300" cy="750" r="8" fill="white" opacity="0.08"/><circle cx="300" cy="800" r="8" fill="white" opacity="0.08"/><circle cx="300" cy="850" r="8" fill="white" opacity="0.08"/><circle cx="300" cy="900" r="8" fill="white" opacity="0.08"/><circle cx="300" cy="950" r="8" fill="white" opacity="0.08"/><circle cx="300" cy="1000" r="8" fill="white" opacity="0.08"/><circle cx="300" cy="1050" r="8" fill="white" opacity="0.08"/><circle cx="300" cy="1100" r="8" fill="white" opacity="0.08"/><circle cx="300" cy="1150" r="8" fill="white" opacity="0.08"/><circle cx="300" cy="1200" r="8" fill="white" opacity="0.08"/><circle cx="300" cy="1250" r="8" fill="white" opacity="0.08"/><circle cx="300" cy="1300" r="8" fill="white" opacity="0.08"/><circle cx="300" cy="1350" r="8" fill="white" opacity="0.08"/><circle cx="300" cy="1400" r="8" fill="white" opacity="0.08"/><circle cx="300" cy="1450" r="8" fill="white" opacity="0.08"/><circle cx="350" cy="0" r="8" fill="white" opacity="0.08"/><circle cx="350" cy="50" r="8" fill="white" opacity="0.08"/><circle cx="350" cy="100" r="8" fill="white" opacity="0.08"/><circle cx="350" cy="150" r="8" fill="white" opacity="0.08"/><circle cx="350" cy="200" r="8" fill="white" opacity="0.08"/><circle cx="350" cy="250" r="8" fill="white" opacity="0.08"/><circle cx="350" cy="300" r="8" fill="white" opacity="0.08"/><circle cx="350" cy="350" r="8" fill="white" opacity="0.08"/><circle cx="350" cy="400" r="8" fill="white" opacity="0.08"/><circle cx="350" cy="450" r="8" fill="white" opacity="0.08"/><circle cx="350" cy="500" r="8" fill="white" opacity="0.08"/><circle cx="350" cy="550" r="8" fill="white" opacity="0.08"/><circle cx="350" cy="600" r="8" fill="white" opacity="0.08"/><circle cx="350" cy="650" r="8" fill="white" opacity="0.08"/><circle cx="350" cy="700" r="8" fill="white" opacity="0.08"/><circle cx="350" cy="750" r="8" fill="white" opacity="0.08"/><circle cx="350" cy="800" r="8" fill="white" opacity="0.08"/><circle cx="350" cy="850" r="8" fill="white" opacity="0.08"/><circle cx="350" cy="900" r="8" fill="white" opacity="0.08"/><circle cx="350" cy="950" r="8" fill="white" opacity="0.08"/><circle cx="350" cy="1000" r="8" fill="white" opacity="0.08"/><circle cx="350" cy="1050" r="8" fill="white" opacity="0.08"/><circle cx="350" cy="1100" r="8" fill="white" opacity="0.08"/><circle cx="350" cy="1150" r="8" fill="white" opacity="0.08"/><circle cx="350" cy="1200" r="8" fill="white" opacity="0.08"/><circle cx="350" cy="1250" r="8" fill="white" opacity="0.08"/><circle cx="350" cy="1300" r="8" fill="white" opacity="0.08"/><circle cx="350" cy="1350" r="8" fill="white" opacity="0.08"/><circle cx="350" cy="1400" r="8" fill="white" opacity="0.08"/><circle cx="350" cy="1450" r="8" fill="white" opacity="0.08"/><circle cx="400" cy="0" r="8" fill="white" opacity="0.08"/><circle cx="400" cy="50" r="8" fill="white" opacity="0.08"/><circle cx="400" cy="100" r="8" fill="white" opacity="0.08"/><circle cx="400" cy="150" r="8" fill="white" opacity="0.08"/><circle cx="400" cy="200" r="8" fill="white" opacity="0.08"/><circle cx="400" cy="250" r="8" fill="white" opacity="0.08"/><circle cx="400" cy="300" r="8" fill="white" opacity="0.08"/><circle cx="400" cy="350" r="8" fill="white" opacity="0.08"/><circle cx="400" cy="400" r="8" fill="white" opacity="0.08"/><circle cx="400" cy="450" r="8" fill="white" opacity="0.08"/><circle cx="400" cy="500" r="8" fill="white" opacity="0.08"/><circle cx="400" cy="550" r="8" fill="white" opacity="0.08"/><circle cx="400" cy="600" r="8" fill="white" opacity="0.08"/><circle cx="400" cy="650" r="8" fill="white" opacity="0.08"/><circle cx="400" cy="700" r="8" fill="white" opacity="0.08"/><circle cx="400" cy="750" r="8" fill="white" opacity="0.08"/><circle cx="400" cy="800" r="8" fill="white" opacity="0.08"/><circle cx="400" cy="850" r="8" fill="white" opacity="0.08"/><circle cx="400" cy="900" r="8" fill="white" opacity="0.08"/><circle cx="400" cy="950" r="8" fill="white" opacity="0.08"/><circle cx="400" cy="1000" r="8" fill="white" opacity="0.08"/><circle cx="400" cy="1050" r="8" fill="white" opacity="0.08"/><circle cx="400" cy="1100" r="8" fill="white" opacity="0.08"/><circle cx="400" cy="1150" r="8" fill="white" opacity="0.08"/><circle cx="400" cy="1200" r="8" fill="white" opacity="0.08"/><circle cx="400" cy="1250" r="8" fill="white" opacity="0.08"/><circle cx="400" cy="1300" r="8" fill="white" opacity="0.08"/><circle cx="400" cy="1350" r="8" fill="white" opacity="0.08"/><circle cx="400" cy="1400" r="8" fill="white" opacity="0.08"/><circle cx="400" cy="1450" r="8" fill="white" opacity="0.08"/><circle cx="450" cy="0" r="8" fill="white" opacity="0.08"/><circle cx="450" cy="50" r="8" fill="white" opacity="0.08"/><circle cx="450" cy="100" r="8" fill="white" opacity="0.08"/><circle cx="450" cy="150" r="8" fill="white" opacity="0.08"/><circle cx="450" cy="200" r="8" fill="white" opacity="0.08"/><circle cx="450" cy="250" r="8" fill="white" opacity="0.08"/><circle cx="450" cy="300" r="8" fill="white" opacity="0.08"/><circle cx="450" cy="350" r="8" fill="white" opacity="0.08"/><circle cx="450" cy="400" r="8" fill="white" opacity="0.08"/><circle cx="450" cy="450" r="8" fill="white" opacity="0.08"/><circle cx="450" cy="500" r="8" fill="white" opacity="0.08"/><circle cx="450" cy="550" r="8" fill="white" opacity="0.08"/><circle cx="450" cy="600" r="8" fill="white" opacity="0.08"/><circle cx="450" cy="650" r="8" fill="white" opacity="0.08"/><circle cx="450" cy="700" r="8" fill="white" opacity="0.08"/><circle cx="450" cy="750" r="8" fill="white" opacity="0.08"/><circle cx="450" cy="800" r="8" fill="white" opacity="0.08"/><circle cx="450" cy="850" r="8" fill="white" opacity="0.08"/><circle cx="450" cy="900" r="8" fill="white" opacity="0.08"/><circle cx="450" cy="950" r="8" fill="white" opacity="0.08"/><circle cx="450" cy="1000" r="8" fill="white" opacity="0.08"/><circle cx="450" cy="1050" r="8" fill="white" opacity="0.08"/><circle cx="450" cy="1100" r="8" fill="white" opacity="0.08"/><circle cx="450" cy="1150" r="8" fill="white" opacity="0.08"/><circle cx="450" cy="1200" r="8" fill="white" opacity="0.08"/><circle cx="450" cy="1250" r="8" fill="white" opacity="0.08"/><circle cx="450" cy="1300" r="8" fill="white" opacity="0.08"/><circle cx="450" cy="1350" r="8" fill="white" opacity="0.08"/><circle cx="450" cy="1400" r="8" fill="white" opacity="0.08"/><circle cx="450" cy="1450" r="8" fill="white" opacity="0.08"/><circle cx="500" cy="0" r="8" fill="white" opacity="0.08"/><circle cx="500" cy="50" r="8" fill="white" opacity="0.08"/><circle cx="500" cy="100" r="8" fill="white" opacity="0.08"/><circle cx="500" cy="150" r="8" fill="white" opacity="0.08"/><circle cx="500" cy="200" r="8" fill="white" opacity="0.08"/><circle cx="500" cy="250" r="8" fill="white" opacity="0.08"/><circle cx="500" cy="300" r="8" fill="white" opacity="0.08"/><circle cx="500" cy="350" r="8" fill="white" opacity="0.08"/><circle cx="500" cy="400" r="8" fill="white" opacity="0.08"/><circle cx="500" cy="450" r="8" fill="white" opacity="0.08"/><circle cx="500" cy="500" r="8" fill="white" opacity="0.08"/><circle cx="500" cy="550" r="8" fill="white" opacity="0.08"/><circle cx="500" cy="600" r="8" fill="white" opacity="0.08"/><circle cx="500" cy="650" r="8" fill="white" opacity="0.08"/><circle cx="500" cy="700" r="8" fill="white" opacity="0.08"/><circle cx="500" cy="750" r="8" fill="white" opacity="0.08"/><circle cx="500" cy="800" r="8" fill="white" opacity="0.08"/><circle cx="500" cy="850" r="8" fill="white" opacity="0.08"/><circle cx="500" cy="900" r="8" fill="white" opacity="0.08"/><circle cx="500" cy="950" r="8" fill="white" opacity="0.08"/><circle cx="500" cy="1000" r="8" fill="white" opacity="0.08"/><circle cx="500" cy="1050" r="8" fill="white" opacity="0.08"/><circle cx="500" cy="1100" r="8" fill="white" opacity="0.08"/><circle cx="500" cy="1150" r="8" fill="white" opacity="0.08"/><circle cx="500" cy="1200" r="8" fill="white" opacity="0.08"/><circle cx="500" cy="1250" r="8" fill="white" opacity="0.08"/><circle cx="500" cy="1300" r="8" fill="white" opacity="0.08"/><circle cx="500" cy="1350" r="8" fill="white" opacity="0.08"/><circle cx="500" cy="1400" r="8" fill="white" opacity="0.08"/><circle cx="500" cy="1450" r="8" fill="white" opacity="0.08"/><circle cx="550" cy="0" r="8" fill="white" opacity="0.08"/><circle cx="550" cy="50" r="8" fill="white" opacity="0.08"/><circle cx="550" cy="100" r="8" fill="white" opacity="0.08"/><circle cx="550" cy="150" r="8" fill="white" opacity="0.08"/><circle cx="550" cy="200" r="8" fill="white" opacity="0.08"/><circle cx="550" cy="250" r="8" fill="white" opacity="0.08"/><circle cx="550" cy="300" r="8" fill="white" opacity="0.08"/><circle cx="550" cy="350" r="8" fill="white" opacity="0.08"/><circle cx="550" cy="400" r="8" fill="white" opacity="0.08"/><circle cx="550" cy="450" r="8" fill="white" opacity="0.08"/><circle cx="550" cy="500" r="8" fill="white" opacity="0.08"/><circle cx="550" cy="550" r="8" fill="white" opacity="0.08"/><circle cx="550" cy="600" r="8" fill="white" opacity="0.08"/><circle cx="550" cy="650" r="8" fill="white" opacity="0.08"/><circle cx="550" cy="700" r="8" fill="white" opacity="0.08"/><circle cx="550" cy="750" r="8" fill="white" opacity="0.08"/><circle cx="550" cy="800" r="8" fill="white" opacity="0.08"/><circle cx="550" cy="850" r="8" fill="white" opacity="0.08"/><circle cx="550" cy="900" r="8" fill="white" opacity="0.08"/><circle cx="550" cy="950" r="8" fill="white" opacity="0.08"/><circle cx="550" cy="1000" r="8" fill="white" opacity="0.08"/><circle cx="550" cy="1050" r="8" fill="white" opacity="0.08"/><circle cx="550" cy="1100" r="8" fill="white" opacity="0.08"/><circle cx="550" cy="1150" r="8" fill="white" opacity="0.08"/><circle cx="550" cy="1200" r="8" fill="white" opacity="0.08"/><circle cx="550" cy="1250" r="8" fill="white" opacity="0.08"/><circle cx="550" cy="1300" r="8" fill="white" opacity="0.08"/><circle cx="550" cy="1350" r="8" fill="white" opacity="0.08"/><circle cx="550" cy="1400" r="8" fill="white" opacity="0.08"/><circle cx="550" cy="1450" r="8" fill="white" opacity="0.08"/><circle cx="600" cy="0" r="8" fill="white" opacity="0.08"/><circle cx="600" cy="50" r="8" fill="white" opacity="0.08"/><circle cx="600" cy="100" r="8" fill="white" opacity="0.08"/><circle cx="600" cy="150" r="8" fill="white" opacity="0.08"/><circle cx="600" cy="200" r="8" fill="white" opacity="0.08"/><circle cx="600" cy="250" r="8" fill="white" opacity="0.08"/><circle cx="600" cy="300" r="8" fill="white" opacity="0.08"/><circle cx="600" cy="350" r="8" fill="white" opacity="0.08"/><circle cx="600" cy="400" r="8" fill="white" opacity="0.08"/><circle cx="600" cy="450" r="8" fill="white" opacity="0.08"/><circle cx="600" cy="500" r="8" fill="white" opacity="0.08"/><circle cx="600" cy="550" r="8" fill="white" opacity="0.08"/><circle cx="600" cy="600" r="8" fill="white" opacity="0.08"/><circle cx="600" cy="650" r="8" fill="white" opacity="0.08"/><circle cx="600" cy="700" r="8" fill="white" opacity="0.08"/><circle cx="600" cy="750" r="8" fill="white" opacity="0.08"/><circle cx="600" cy="800" r="8" fill="white" opacity="0.08"/><circle cx="600" cy="850" r="8" fill="white" opacity="0.08"/><circle cx="600" cy="900" r="8" fill="white" opacity="0.08"/><circle cx="600" cy="950" r="8" fill="white" opacity="0.08"/><circle cx="600" cy="1000" r="8" fill="white" opacity="0.08"/><circle cx="600" cy="1050" r="8" fill="white" opacity="0.08"/><circle cx="600" cy="1100" r="8" fill="white" opacity="0.08"/><circle cx="600" cy="1150" r="8" fill="white" opacity="0.08"/><circle cx="600" cy="1200" r="8" fill="white" opacity="0.08"/><circle cx="600" cy="1250" r="8" fill="white" opacity="0.08"/><circle cx="600" cy="1300" r="8" fill="white" opacity="0.08"/><circle cx="600" cy="1350" r="8" fill="white" opacity="0.08"/><circle cx="600" cy="1400" r="8" fill="white" opacity="0.08"/><circle cx="600" cy="1450" r="8" fill="white" opacity="0.08"/><circle cx="650" cy="0" r="8" fill="white" opacity="0.08"/><circle cx="650" cy="50" r="8" fill="white" opacity="0.08"/><circle cx="650" cy="100" r="8" fill="white" opacity="0.08"/><circle cx="650" cy="150" r="8" fill="white" opacity="0.08"/><circle cx="650" cy="200" r="8" fill="white" opacity="0.08"/><circle cx="650" cy="250" r="8" fill="white" opacity="0.08"/><circle cx="650" cy="300" r="8" fill="white" opacity="0.08"/><circle cx="650" cy="350" r="8" fill="white" opacity="0.08"/><circle cx="650" cy="400" r="8" fill="white" opacity="0.08"/><circle cx="650" cy="450" r="8" fill="white" opacity="0.08"/><circle cx="650" cy="500" r="8" fill="white" opacity="0.08"/><circle cx="650" cy="550" r="8" fill="white" opacity="0.08"/><circle cx="650" cy="600" r="8" fill="white" opacity="0.08"/><circle cx="650" cy="650" r="8" fill="white" opacity="0.08"/><circle cx="650" cy="700" r="8" fill="white" opacity="0.08"/><circle cx="650" cy="750" r="8" fill="white" opacity="0.08"/><circle cx="650" cy="800" r="8" fill="white" opacity="0.08"/><circle cx="650" cy="850" r="8" fill="white" opacity="0.08"/><circle cx="650" cy="900" r="8" fill="white" opacity="0.08"/><circle cx="650" cy="950" r="8" fill="white" opacity="0.08"/><circle cx="650" cy="1000" r="8" fill="white" opacity="0.08"/><circle cx="650" cy="1050" r="8" fill="white" opacity="0.08"/><circle cx="650" cy="1100" r="8" fill="white" opacity="0.08"/><circle cx="650" cy="1150" r="8" fill="white" opacity="0.08"/><circle cx="650" cy="1200" r="8" fill="white" opacity="0.08"/><circle cx="650" cy="1250" r="8" fill="white" opacity="0.08"/><circle cx="650" cy="1300" r="8" fill="white" opacity="0.08"/><circle cx="650" cy="1350" r="8" fill="white" opacity="0.08"/><circle cx="650" cy="1400" r="8" fill="white" opacity="0.08"/><circle cx="650" cy="1450" r="8" fill="white" opacity="0.08"/><circle cx="700" cy="0" r="8" fill="white" opacity="0.08"/><circle cx="700" cy="50" r="8" fill="white" opacity="0.08"/><circle cx="700" cy="100" r="8" fill="white" opacity="0.08"/><circle cx="700" cy="150" r="8" fill="white" opacity="0.08"/><circle cx="700" cy="200" r="8" fill="white" opacity="0.08"/><circle cx="700" cy="250" r="8" fill="white" opacity="0.08"/><circle cx="700" cy="300" r="8" fill="white" opacity="0.08"/><circle cx="700" cy="350" r="8" fill="white" opacity="0.08"/><circle cx="700" cy="400" r="8" fill="white" opacity="0.08"/><circle cx="700" cy="450" r="8" fill="white" opacity="0.08"/><circle cx="700" cy="500" r="8" fill="white" opacity="0.08"/><circle cx="700" cy="550" r="8" fill="white" opacity="0.08"/><circle cx="700" cy="600" r="8" fill="white" opacity="0.08"/><circle cx="700" cy="650" r="8" fill="white" opacity="0.08"/><circle cx="700" cy="700" r="8" fill="white" opacity="0.08"/><circle cx="700" cy="750" r="8" fill="white" opacity="0.08"/><circle cx="700" cy="800" r="8" fill="white" opacity="0.08"/><circle cx="700" cy="850" r="8" fill="white" opacity="0.08"/><circle cx="700" cy="900" r="8" fill="white" opacity="0.08"/><circle cx="700" cy="950" r="8" fill="white" opacity="0.08"/><circle cx="700" cy="1000" r="8" fill="white" opacity="0.08"/><circle cx="700" cy="1050" r="8" fill="white" opacity="0.08"/><circle cx="700" cy="1100" r="8" fill="white" opacity="0.08"/><circle cx="700" cy="1150" r="8" fill="white" opacity="0.08"/><circle cx="700" cy="1200" r="8" fill="white" opacity="0.08"/><circle cx="700" cy="1250" r="8" fill="white" opacity="0.08"/><circle cx="700" cy="1300" r="8" fill="white" opacity="0.08"/><circle cx="700" cy="1350" r="8" fill="white" opacity="0.08"/><circle cx="700" cy="1400" r="8" fill="white" opacity="0.08"/><circle cx="700" cy="1450" r="8" fill="white" opacity="0.08"/><circle cx="750" cy="0" r="8" fill="white" opacity="0.08"/><circle cx="750" cy="50" r="8" fill="white" opacity="0.08"/><circle cx="750" cy="100" r="8" fill="white" opacity="0.08"/><circle cx="750" cy="150" r="8" fill="white" opacity="0.08"/><circle cx="750" cy="200" r="8" fill="white" opacity="0.08"/><circle cx="750" cy="250" r="8" fill="white" opacity="0.08"/><circle cx="750" cy="300" r="8" fill="white" opacity="0.08"/><circle cx="750" cy="350" r="8" fill="white" opacity="0.08"/><circle cx="750" cy="400" r="8" fill="white" opacity="0.08"/><circle cx="750" cy="450" r="8" fill="white" opacity="0.08"/><circle cx="750" cy="500" r="8" fill="white" opacity="0.08"/><circle cx="750" cy="550" r="8" fill="white" opacity="0.08"/><circle cx="750" cy="600" r="8" fill="white" opacity="0.08"/><circle cx="750" cy="650" r="8" fill="white" opacity="0.08"/><circle cx="750" cy="700" r="8" fill="white" opacity="0.08"/><circle cx="750" cy="750" r="8" fill="white" opacity="0.08"/><circle cx="750" cy="800" r="8" fill="white" opacity="0.08"/><circle cx="750" cy="850" r="8" fill="white" opacity="0.08"/><circle cx="750" cy="900" r="8" fill="white" opacity="0.08"/><circle cx="750" cy="950" r="8" fill="white" opacity="0.08"/><circle cx="750" cy="1000" r="8" fill="white" opacity="0.08"/><circle cx="750" cy="1050" r="8" fill="white" opacity="0.08"/><circle cx="750" cy="1100" r="8" fill="white" opacity="0.08"/><circle cx="750" cy="1150" r="8" fill="white" opacity="0.08"/><circle cx="750" cy="1200" r="8" fill="white" opacity="0.08"/><circle cx="750" cy="1250" r="8" fill="white" opacity="0.08"/><circle cx="750" cy="1300" r="8" fill="white" opacity="0.08"/><circle cx="750" cy="1350" r="8" fill="white" opacity="0.08"/><circle cx="750" cy="1400" r="8" fill="white" opacity="0.08"/><circle cx="750" cy="1450" r="8" fill="white" opacity="0.08"/><circle cx="800" cy="0" r="8" fill="white" opacity="0.08"/><circle cx="800" cy="50" r="8" fill="white" opacity="0.08"/><circle cx="800" cy="100" r="8" fill="white" opacity="0.08"/><circle cx="800" cy="150" r="8" fill="white" opacity="0.08"/><circle cx="800" cy="200" r="8" fill="white" opacity="0.08"/><circle cx="800" cy="250" r="8" fill="white" opacity="0.08"/><circle cx="800" cy="300" r="8" fill="white" opacity="0.08"/><circle cx="800" cy="350" r="8" fill="white" opacity="0.08"/><circle cx="800" cy="400" r="8" fill="white" opacity="0.08"/><circle cx="800" cy="450" r="8" fill="white" opacity="0.08"/><circle cx="800" cy="500" r="8" fill="white" opacity="0.08"/><circle cx="800" cy="550" r="8" fill="white" opacity="0.08"/><circle cx="800" cy="600" r="8" fill="white" opacity="0.08"/><circle cx="800" cy="650" r="8" fill="white" opacity="0.08"/><circle cx="800" cy="700" r="8" fill="white" opacity="0.08"/><circle cx="800" cy="750" r="8" fill="white" opacity="0.08"/><circle cx="800" cy="800" r="8" fill="white" opacity="0.08"/><circle cx="800" cy="850" r="8" fill="white" opacity="0.08"/><circle cx="800" cy="900" r="8" fill="white" opacity="0.08"/><circle cx="800" cy="950" r="8" fill="white" opacity="0.08"/><circle cx="800" cy="1000" r="8" fill="white" opacity="0.08"/><circle cx="800" cy="1050" r="8" fill="white" opacity="0.08"/><circle cx="800" cy="1100" r="8" fill="white" opacity="0.08"/><circle cx="800" cy="1150" r="8" fill="white" opacity="0.08"/><circle cx="800" cy="1200" r="8" fill="white" opacity="0.08"/><circle cx="800" cy="1250" r="8" fill="white" opacity="0.08"/><circle cx="800" cy="1300" r="8" fill="white" opacity="0.08"/><circle cx="800" cy="1350" r="8" fill="white" opacity="0.08"/><circle cx="800" cy="1400" r="8" fill="white" opacity="0.08"/><circle cx="800" cy="1450" r="8" fill="white" opacity="0.08"/><circle cx="850" cy="0" r="8" fill="white" opacity="0.08"/><circle cx="850" cy="50" r="8" fill="white" opacity="0.08"/><circle cx="850" cy="100" r="8" fill="white" opacity="0.08"/><circle cx="850" cy="150" r="8" fill="white" opacity="0.08"/><circle cx="850" cy="200" r="8" fill="white" opacity="0.08"/><circle cx="850" cy="250" r="8" fill="white" opacity="0.08"/><circle cx="850" cy="300" r="8" fill="white" opacity="0.08"/><circle cx="850" cy="350" r="8" fill="white" opacity="0.08"/><circle cx="850" cy="400" r="8" fill="white" opacity="0.08"/><circle cx="850" cy="450" r="8" fill="white" opacity="0.08"/><circle cx="850" cy="500" r="8" fill="white" opacity="0.08"/><circle cx="850" cy="550" r="8" fill="white" opacity="0.08"/><circle cx="850" cy="600" r="8" fill="white" opacity="0.08"/><circle cx="850" cy="650" r="8" fill="white" opacity="0.08"/><circle cx="850" cy="700" r="8" fill="white" opacity="0.08"/><circle cx="850" cy="750" r="8" fill="white" opacity="0.08"/><circle cx="850" cy="800" r="8" fill="white" opacity="0.08"/><circle cx="850" cy="850" r="8" fill="white" opacity="0.08"/><circle cx="850" cy="900" r="8" fill="white" opacity="0.08"/><circle cx="850" cy="950" r="8" fill="white" opacity="0.08"/><circle cx="850" cy="1000" r="8" fill="white" opacity="0.08"/><circle cx="850" cy="1050" r="8" fill="white" opacity="0.08"/><circle cx="850" cy="1100" r="8" fill="white" opacity="0.08"/><circle cx="850" cy="1150" r="8" fill="white" opacity="0.08"/><circle cx="850" cy="1200" r="8" fill="white" opacity="0.08"/><circle cx="850" cy="1250" r="8" fill="white" opacity="0.08"/><circle cx="850" cy="1300" r="8" fill="white" opacity="0.08"/><circle cx="850" cy="1350" r="8" fill="white" opacity="0.08"/><circle cx="850" cy="1400" r="8" fill="white" opacity="0.08"/><circle cx="850" cy="1450" r="8" fill="white" opacity="0.08"/><circle cx="900" cy="0" r="8" fill="white" opacity="0.08"/><circle cx="900" cy="50" r="8" fill="white" opacity="0.08"/><circle cx="900" cy="100" r="8" fill="white" opacity="0.08"/><circle cx="900" cy="150" r="8" fill="white" opacity="0.08"/><circle cx="900" cy="200" r="8" fill="white" opacity="0.08"/><circle cx="900" cy="250" r="8" fill="white" opacity="0.08"/><circle cx="900" cy="300" r="8" fill="white" opacity="0.08"/><circle cx="900" cy="350" r="8" fill="white" opacity="0.08"/><circle cx="900" cy="400" r="8" fill="white" opacity="0.08"/><circle cx="900" cy="450" r="8" fill="white" opacity="0.08"/><circle cx="900" cy="500" r="8" fill="white" opacity="0.08"/><circle cx="900" cy="550" r="8" fill="white" opacity="0.08"/><circle cx="900" cy="600" r="8" fill="white" opacity="0.08"/><circle cx="900" cy="650" r="8" fill="white" opacity="0.08"/><circle cx="900" cy="700" r="8" fill="white" opacity="0.08"/><circle cx="900" cy="750" r="8" fill="white" opacity="0.08"/><circle cx="900" cy="800" r="8" fill="white" opacity="0.08"/><circle cx="900" cy="850" r="8" fill="white" opacity="0.08"/><circle cx="900" cy="900" r="8" fill="white" opacity="0.08"/><circle cx="900" cy="950" r="8" fill="white" opacity="0.08"/><circle cx="900" cy="1000" r="8" fill="white" opacity="0.08"/><circle cx="900" cy="1050" r="8" fill="white" opacity="0.08"/><circle cx="900" cy="1100" r="8" fill="white" opacity="0.08"/><circle cx="900" cy="1150" r="8" fill="white" opacity="0.08"/><circle cx="900" cy="1200" r="8" fill="white" opacity="0.08"/><circle cx="900" cy="1250" r="8" fill="white" opacity="0.08"/><circle cx="900" cy="1300" r="8" fill="white" opacity="0.08"/><circle cx="900" cy="1350" r="8" fill="white" opacity="0.08"/><circle cx="900" cy="1400" r="8" fill="white" opacity="0.08"/><circle cx="900" cy="1450" r="8" fill="white" opacity="0.08"/><circle cx="950" cy="0" r="8" fill="white" opacity="0.08"/><circle cx="950" cy="50" r="8" fill="white" opacity="0.08"/><circle cx="950" cy="100" r="8" fill="white" opacity="0.08"/><circle cx="950" cy="150" r="8" fill="white" opacity="0.08"/><circle cx="950" cy="200" r="8" fill="white" opacity="0.08"/><circle cx="950" cy="250" r="8" fill="white" opacity="0.08"/><circle cx="950" cy="300" r="8" fill="white" opacity="0.08"/><circle cx="950" cy="350" r="8" fill="white" opacity="0.08"/><circle cx="950" cy="400" r="8" fill="white" opacity="0.08"/><circle cx="950" cy="450" r="8" fill="white" opacity="0.08"/><circle cx="950" cy="500" r="8" fill="white" opacity="0.08"/><circle cx="950" cy="550" r="8" fill="white" opacity="0.08"/><circle cx="950" cy="600" r="8" fill="white" opacity="0.08"/><circle cx="950" cy="650" r="8" fill="white" opacity="0.08"/><circle cx="950" cy="700" r="8" fill="white" opacity="0.08"/><circle cx="950" cy="750" r="8" fill="white" opacity="0.08"/><circle cx="950" cy="800" r="8" fill="white" opacity="0.08"/><circle cx="950" cy="850" r="8" fill="white" opacity="0.08"/><circle cx="950" cy="900" r="8" fill="white" opacity="0.08"/><circle cx="950" cy="950" r="8" fill="white" opacity="0.08"/><circle cx="950" cy="1000" r="8" fill="white" opacity="0.08"/><circle cx="950" cy="1050" r="8" fill="white" opacity="0.08"/><circle cx="950" cy="1100" r="8" fill="white" opacity="0.08"/><circle cx="950" cy="1150" r="8" fill="white" opacity="0.08"/><circle cx="950" cy="1200" r="8" fill="white" opacity="0.08"/><circle cx="950" cy="1250" r="8" fill="white" opacity="0.08"/><circle cx="950" cy="1300" r="8" fill="white" opacity="0.08"/><circle cx="950" cy="1350" r="8" fill="white" opacity="0.08"/><circle cx="950" cy="1400" r="8" fill="white" opacity="0.08"/><circle cx="950" cy="1450" r="8" fill="white" opacity="0.08"/><circle cx="1000" cy="0" r="8" fill="white" opacity="0.08"/><circle cx="1000" cy="50" r="8" fill="white" opacity="0.08"/><circle cx="1000" cy="100" r="8" fill="white" opacity="0.08"/><circle cx="1000" cy="150" r="8" fill="white" opacity="0.08"/><circle cx="1000" cy="200" r="8" fill="white" opacity="0.08"/><circle cx="1000" cy="250" r="8" fill="white" opacity="0.08"/><circle cx="1000" cy="300" r="8" fill="white" opacity="0.08"/><circle cx="1000" cy="350" r="8" fill="white" opacity="0.08"/><circle cx="1000" cy="400" r="8" fill="white" opacity="0.08"/><circle cx="1000" cy="450" r="8" fill="white" opacity="0.08"/><circle cx="1000" cy="500" r="8" fill="white" opacity="0.08"/><circle cx="1000" cy="550" r="8" fill="white" opacity="0.08"/><circle cx="1000" cy="600" r="8" fill="white" opacity="0.08"/><circle cx="1000" cy="650" r="8" fill="white" opacity="0.08"/><circle cx="1000" cy="700" r="8" fill="white" opacity="0.08"/><circle cx="1000" cy="750" r="8" fill="white" opacity="0.08"/><circle cx="1000" cy="800" r="8" fill="white" opacity="0.08"/><circle cx="1000" cy="850" r="8" fill="white" opacity="0.08"/><circle cx="1000" cy="900" r="8" fill="white" opacity="0.08"/><circle cx="1000" cy="950" r="8" fill="white" opacity="0.08"/><circle cx="1000" cy="1000" r="8" fill="white" opacity="0.08"/><circle cx="1000" cy="1050" r="8" fill="white" opacity="0.08"/><circle cx="1000" cy="1100" r="8" fill="white" opacity="0.08"/><circle cx="1000" cy="1150" r="8" fill="white" opacity="0.08"/><circle cx="1000" cy="1200" r="8" fill="white" opacity="0.08"/><circle cx="1000" cy="1250" r="8" fill="white" opacity="0.08"/><circle cx="1000" cy="1300" r="8" fill="white" opacity="0.08"/><circle cx="1000" cy="1350" r="8" fill="white" opacity="0.08"/><circle cx="1000" cy="1400" r="8" fill="white" opacity="0.08"/><circle cx="1000" cy="1450" r="8" fill="white" opacity="0.08"/><circle cx="1050" cy="0" r="8" fill="white" opacity="0.08"/><circle cx="1050" cy="50" r="8" fill="white" opacity="0.08"/><circle cx="1050" cy="100" r="8" fill="white" opacity="0.08"/><circle cx="1050" cy="150" r="8" fill="white" opacity="0.08"/><circle cx="1050" cy="200" r="8" fill="white" opacity="0.08"/><circle cx="1050" cy="250" r="8" fill="white" opacity="0.08"/><circle cx="1050" cy="300" r="8" fill="white" opacity="0.08"/><circle cx="1050" cy="350" r="8" fill="white" opacity="0.08"/><circle cx="1050" cy="400" r="8" fill="white" opacity="0.08"/><circle cx="1050" cy="450" r="8" fill="white" opacity="0.08"/><circle cx="1050" cy="500" r="8" fill="white" opacity="0.08"/><circle cx="1050" cy="550" r="8" fill="white" opacity="0.08"/><circle cx="1050" cy="600" r="8" fill="white" opacity="0.08"/><circle cx="1050" cy="650" r="8" fill="white" opacity="0.08"/><circle cx="1050" cy="700" r="8" fill="white" opacity="0.08"/><circle cx="1050" cy="750" r="8" fill="white" opacity="0.08"/><circle cx="1050" cy="800" r="8" fill="white" opacity="0.08"/><circle cx="1050" cy="850" r="8" fill="white" opacity="0.08"/><circle cx="1050" cy="900" r="8" fill="white" opacity="0.08"/><circle cx="1050" cy="950" r="8" fill="white" opacity="0.08"/><circle cx="1050" cy="1000" r="8" fill="white" opacity="0.08"/><circle cx="1050" cy="1050" r="8" fill="white" opacity="0.08"/><circle cx="1050" cy="1100" r="8" fill="white" opacity="0.08"/><circle cx="1050" cy="1150" r="8" fill="white" opacity="0.08"/><circle cx="1050" cy="1200" r="8" fill="white" opacity="0.08"/><circle cx="1050" cy="1250" r="8" fill="white" opacity="0.08"/><circle cx="1050" cy="1300" r="8" fill="white" opacity="0.08"/><circle cx="1050" cy="1350" r="8" fill="white" opacity="0.08"/><circle cx="1050" cy="1400" r="8" fill="white" opacity="0.08"/><circle cx="1050" cy="1450" r="8" fill="white" opacity="0.08"/><circle cx="1100" cy="0" r="8" fill="white" opacity="0.08"/><circle cx="1100" cy="50" r="8" fill="white" opacity="0.08"/><circle cx="1100" cy="100" r="8" fill="white" opacity="0.08"/><circle cx="1100" cy="150" r="8" fill="white" opacity="0.08"/><circle cx="1100" cy="200" r="8" fill="white" opacity="0.08"/><circle cx="1100" cy="250" r="8" fill="white" opacity="0.08"/><circle cx="1100" cy="300" r="8" fill="white" opacity="0.08"/><circle cx="1100" cy="350" r="8" fill="white" opacity="0.08"/><circle cx="1100" cy="400" r="8" fill="white" opacity="0.08"/><circle cx="1100" cy="450" r="8" fill="white" opacity="0.08"/><circle cx="1100" cy="500" r="8" fill="white" opacity="0.08"/><circle cx="1100" cy="550" r="8" fill="white" opacity="0.08"/><circle cx="1100" cy="600" r="8" fill="white" opacity="0.08"/><circle cx="1100" cy="650" r="8" fill="white" opacity="0.08"/><circle cx="1100" cy="700" r="8" fill="white" opacity="0.08"/><circle cx="1100" cy="750" r="8" fill="white" opacity="0.08"/><circle cx="1100" cy="800" r="8" fill="white" opacity="0.08"/><circle cx="1100" cy="850" r="8" fill="white" opacity="0.08"/><circle cx="1100" cy="900" r="8" fill="white" opacity="0.08"/><circle cx="1100" cy="950" r="8" fill="white" opacity="0.08"/><circle cx="1100" cy="1000" r="8" fill="white" opacity="0.08"/><circle cx="1100" cy="1050" r="8" fill="white" opacity="0.08"/><circle cx="1100" cy="1100" r="8" fill="white" opacity="0.08"/><circle cx="1100" cy="1150" r="8" fill="white" opacity="0.08"/><circle cx="1100" cy="1200" r="8" fill="white" opacity="0.08"/><circle cx="1100" cy="1250" r="8" fill="white" opacity="0.08"/><circle cx="1100" cy="1300" r="8" fill="white" opacity="0.08"/><circle cx="1100" cy="1350" r="8" fill="white" opacity="0.08"/><circle cx="1100" cy="1400" r="8" fill="white" opacity="0.08"/><circle cx="1100" cy="1450" r="8" fill="white" opacity="0.08"/><circle cx="1150" cy="0" r="8" fill="white" opacity="0.08"/><circle cx="1150" cy="50" r="8" fill="white" opacity="0.08"/><circle cx="1150" cy="100" r="8" fill="white" opacity="0.08"/><circle cx="1150" cy="150" r="8" fill="white" opacity="0.08"/><circle cx="1150" cy="200" r="8" fill="white" opacity="0.08"/><circle cx="1150" cy="250" r="8" fill="white" opacity="0.08"/><circle cx="1150" cy="300" r="8" fill="white" opacity="0.08"/><circle cx="1150" cy="350" r="8" fill="white" opacity="0.08"/><circle cx="1150" cy="400" r="8" fill="white" opacity="0.08"/><circle cx="1150" cy="450" r="8" fill="white" opacity="0.08"/><circle cx="1150" cy="500" r="8" fill="white" opacity="0.08"/><circle cx="1150" cy="550" r="8" fill="white" opacity="0.08"/><circle cx="1150" cy="600" r="8" fill="white" opacity="0.08"/><circle cx="1150" cy="650" r="8" fill="white" opacity="0.08"/><circle cx="1150" cy="700" r="8" fill="white" opacity="0.08"/><circle cx="1150" cy="750" r="8" fill="white" opacity="0.08"/><circle cx="1150" cy="800" r="8" fill="white" opacity="0.08"/><circle cx="1150" cy="850" r="8" fill="white" opacity="0.08"/><circle cx="1150" cy="900" r="8" fill="white" opacity="0.08"/><circle cx="1150" cy="950" r="8" fill="white" opacity="0.08"/><circle cx="1150" cy="1000" r="8" fill="white" opacity="0.08"/><circle cx="1150" cy="1050" r="8" fill="white" opacity="0.08"/><circle cx="1150" cy="1100" r="8" fill="white" opacity="0.08"/><circle cx="1150" cy="1150" r="8" fill="white" opacity="0.08"/><circle cx="1150" cy="1200" r="8" fill="white" opacity="0.08"/><circle cx="1150" cy="1250" r="8" fill="white" opacity="0.08"/><circle cx="1150" cy="1300" r="8" fill="white" opacity="0.08"/><circle cx="1150" cy="1350" r="8" fill="white" opacity="0.08"/><circle cx="1150" cy="1400" r="8" fill="white" opacity="0.08"/><circle cx="1150" cy="1450" r="8" fill="white" opacity="0.08"/>
  </g>
  
  <!-- Dark overlay for text -->
  <rect width="1200" height="1500" fill="black" opacity="0.35"/>
  
  <!-- Product name -->
  <text x="600" y="710" 
        font-family="serif" font-size="48" font-weight="bold" 
        text-anchor="middle" fill="white" letter-spacing="2">
    t
  </text>
  
  <!-- Subtitle -->
  <text x="600" y="790" 
        font-family="sans-serif" font-size="24" 
        text-anchor="middle" fill="#E0E0E0">
    Product View
  </text>
  
  <!-- Decorative line -->
  <line x1="500" y1="830" 
        x2="700" y2="830" 
        stroke="white" stroke-width="2" opacity="0.5"/>
</svg>